<svg id='Cylon Head New' width='24' height='24' viewBox='0 0 24 24' xmlns='http://www.w3.org/2000/svg' xmlns:xlink='http://www.w3.org/1999/xlink'><rect width='24' height='24' stroke='none' fill='#000000' opacity='0'/>

<g transform="matrix(0.25 0 0 0.25 12 12)" >
<g style="" >
<g transform="matrix(1 0 0 1 0 -17)" >
<path style="stroke: none; stroke-width: 1; stroke-dasharray: none; stroke-linecap: butt; stroke-dashoffset: 0; stroke-linejoin: miter; stroke-miterlimit: 4; fill: rgb(255,87,34); fill-rule: nonzero; opacity: 1;" transform=" translate(-40, -23)" d="M 14.505 35.5 C 14.773000000000001 21.669 26.107 10.5 40 10.5 C 53.893 10.5 65.22800000000001 21.669 65.495 35.5 L 14.505 35.5 z" stroke-linecap="round" />
</g>
<g transform="matrix(1 0 0 1 0 -17)" >
<path style="stroke: none; stroke-width: 1; stroke-dasharray: none; stroke-linecap: butt; stroke-dashoffset: 0; stroke-linejoin: miter; stroke-miterlimit: 4; fill: rgb(239,83,32); fill-rule: nonzero; opacity: 1;" transform=" translate(-40, -23)" d="M 40 11 C 53.45 11 64.45400000000001 21.677 64.98 35 L 15.02 35 C 15.546 21.677 26.55 11 40 11 M 40 10 C 25.641 10 14 21.641 14 36 L 66 36 C 66 21.641 54.359 10 40 10 L 40 10 z" stroke-linecap="round" />
</g>
<g transform="matrix(1 0 0 1 0 20.5)" >
<path style="stroke: none; stroke-width: 1; stroke-dasharray: none; stroke-linecap: butt; stroke-dashoffset: 0; stroke-linejoin: miter; stroke-miterlimit: 4; fill: rgb(255,111,66); fill-rule: nonzero; opacity: 1;" transform=" translate(-40, -60.5)" d="M 20.5 48.5 L 59.5 48.5 L 59.5 72.5 L 20.5 72.5 z" stroke-linecap="round" />
</g>
<g transform="matrix(1 0 0 1 0 20.5)" >
<path style="stroke: none; stroke-width: 1; stroke-dasharray: none; stroke-linecap: butt; stroke-dashoffset: 0; stroke-linejoin: miter; stroke-miterlimit: 4; fill: rgb(229,75,29); fill-rule: nonzero; opacity: 1;" transform=" translate(-40, -60.5)" d="M 59 49 L 59 72 L 21 72 L 21 49 L 59 49 M 60 48 L 20 48 L 20 73 L 60 73 L 60 48 L 60 48 z" stroke-linecap="round" />
</g>
<g transform="matrix(1 0 0 1 0 21)" >
<path style="stroke: none; stroke-width: 1; stroke-dasharray: none; stroke-linecap: butt; stroke-dashoffset: 0; stroke-linejoin: miter; stroke-miterlimit: 4; fill: rgb(229,75,29); fill-rule: nonzero; opacity: 1;" transform=" translate(-40, -61)" d="M 26 64 L 54 64 L 54 66 L 26 66 z M 26 68 L 54 68 L 54 70 L 26 70 z M 26 60 L 54 60 L 54 62 L 26 62 z M 26 52 L 54 52 L 54 54 L 26 54 z M 26 56 L 54 56 L 54 58 L 26 58 z" stroke-linecap="round" />
</g>
<g transform="matrix(1 0 0 1 0 0)" >
<path style="stroke: none; stroke-width: 1; stroke-dasharray: none; stroke-linecap: butt; stroke-dashoffset: 0; stroke-linejoin: miter; stroke-miterlimit: 4; fill: rgb(255,111,66); fill-rule: nonzero; opacity: 1;" transform=" translate(-40, -40)" d="M 56.379 77.5 L 49.287 52.075 C 48.824 50.531000000000006 47.438 49.5 45.836 49.5 L 34.164 49.5 C 32.562000000000005 49.5 31.177 50.531 30.716 52.065 L 23.621 77.5 L 10.803 77.5 L 18.482 50.135000000000005 C 18.649 49.229000000000006 18.552 48.624 18.188 48.188 C 17.682 47.582 16.798 47.5 16 47.5 L 13 47.5 C 11.622 47.5 10.5 46.378 10.5 45 L 10.5 33 C 10.5 31.622 11.622 30.5 13 30.5 L 34.537 30.5 L 32.537 2.5 L 47.463 2.5 L 45.463 30.5 L 67 30.5 C 68.378 30.5 69.5 31.622 69.5 33 L 69.5 45 C 69.5 46.378 68.378 47.5 67 47.5 L 64 47.5 C 63.202 47.5 62.319 47.582 61.812 48.188 C 61.448 48.625 61.351 49.229 61.507999999999996 50.089000000000006 L 69.198 77.5 L 56.379 77.5 z" stroke-linecap="round" />
</g>
<g transform="matrix(1 0 0 1 0 0)" >
<path style="stroke: none; stroke-width: 1; stroke-dasharray: none; stroke-linecap: butt; stroke-dashoffset: 0; stroke-linejoin: miter; stroke-miterlimit: 4; fill: rgb(239,83,32); fill-rule: nonzero; opacity: 1;" transform=" translate(-40, -40)" d="M 46.926 3 L 45.003 29.929 L 44.926 31 L 46 31 L 67 31 C 68.103 31 69 31.897 69 33 L 69 45 C 69 46.103 68.103 47 67 47 L 64 47 C 63.14 47 62.071 47.099 61.429 47.868 C 60.969 48.419000000000004 60.834 49.175000000000004 61.016000000000005 50.179 L 61.02400000000001 50.225 L 61.037000000000006 50.27 L 68.538 77 L 56.759 77 L 49.763 51.922 C 49.239 50.174 47.661 49 45.836 49 L 34.164 49 C 32.339 49 30.761000000000003 50.174 30.232000000000003 51.94 L 23.241 77 L 11.462 77 L 18.963 50.269999999999996 L 18.976000000000003 50.224999999999994 L 18.984 50.178999999999995 C 19.167 49.175 19.032 48.419 18.571 47.867999999999995 C 17.929 47.099 16.86 47 16 47 L 13 47 C 11.897 47 11 46.103 11 45 L 11 33 C 11 31.897 11.897 31 13 31 L 34 31 L 35.074 31 L 34.997 29.929 L 33.074 3 L 40 3 L 46.926 3 M 48 2 L 40 2 L 32 2 L 34 30 L 13 30 C 11.343 30 10 31.343 10 33 L 10 45 C 10 46.657 11.343 48 13 48 L 16 48 C 17.601 48 18.286 48.425 18 50 L 10.143 78 L 24 78 L 31.194 52.209 C 31.587 50.898 32.794 50 34.163 50 L 45.836 50 C 47.205 50 48.412 50.898 48.805 52.209 L 56 78 L 69.857 78 L 62 50 C 61.714 48.425 62.399 48 64 48 L 67 48 C 68.657 48 70 46.657 70 45 L 70 33 C 70 31.343 68.657 30 67 30 L 46 30 L 48 2 L 48 2 z" stroke-linecap="round" />
</g>
<g transform="matrix(1 0 0 1 0 1)" >
<path style="stroke: none; stroke-width: 1; stroke-dasharray: none; stroke-linecap: butt; stroke-dashoffset: 0; stroke-linejoin: miter; stroke-miterlimit: 4; fill: rgb(229,75,29); fill-rule: nonzero; opacity: 1;" transform=" translate(-40, -41)" d="M 64 42 L 52 42 L 48 46 L 32 46 L 28 42 L 16 42 L 16 36 L 64 36 z" stroke-linecap="round" />
</g>
<g transform="matrix(1 0 0 1 0 -1)" >
<path style="stroke: none; stroke-width: 1; stroke-dasharray: none; stroke-linecap: butt; stroke-dashoffset: 0; stroke-linejoin: miter; stroke-miterlimit: 4; fill: rgb(247,82,82); fill-rule: nonzero; opacity: 1;" transform=" translate(-40, -39)" d="M 28 38 L 52 38 L 52 40 L 28 40 z" stroke-linecap="round" />
</g>
</g>
</g>
</svg>